<svg width="88" height="44" viewBox="0 0 88 44" fill="none" xmlns="http://www.w3.org/2000/svg">
<path d="M3.5538 0.0474243L6.05087 0.175354C12.584 0.509959 18.6455 3.33089 23.0841 7.91656L23.0772 7.93317C24.6228 9.51816 25.9756 11.3143 27.0831 13.2955L31.6944 21.5455L31.6895 21.5562L35.3028 28.0201C38.4458 33.6419 46.4558 33.8615 49.9024 28.4205L52.3683 24.5269L57.4327 32.522C57.9065 33.27 58.4118 33.9918 58.9444 34.688C51.2058 46.3271 34.1683 46.1793 26.5431 34.7584C26.2694 34.344 26.0079 33.915 25.7599 33.4713L17.7501 19.1441L17.7442 19.1548L17.4229 18.5797C14.9853 14.219 10.4775 11.4173 5.48837 11.1617L2.9913 11.0338C1.33661 10.949 0.0638053 9.53903 0.148525 7.88434L0.404385 2.8902C0.489119 1.23552 1.89912 -0.0372952 3.5538 0.0474243ZM23.1417 34.9351L23.2511 35.1236C18.7871 39.9043 12.5949 42.8543 5.90634 43.1968L3.40927 43.3248C1.75462 43.4095 0.34463 42.1366 0.259853 40.482L0.00399399 35.4879C-0.080726 33.8332 1.19208 32.4232 2.84677 32.3384L5.34384 32.2105C10.333 31.955 14.8408 29.1532 17.2784 24.7925L17.3741 24.6197L23.1417 34.9351ZM26.9688 7.80035C34.9319 -2.92636 51.6175 -2.66967 59.0509 9.065L60.629 11.5572C60.6459 11.5334 60.6628 11.5097 60.6798 11.4859L67.1651 21.7232L67.1173 21.7994L69.003 24.7769C69.7088 25.891 70.5407 26.9005 71.4737 27.7916C71.6808 27.9984 71.892 28.2004 72.1095 28.3951L72.1222 28.3775C74.7823 30.654 78.1514 32.0282 81.7354 32.2105L84.2325 32.3375C85.8872 32.4217 87.1604 33.8312 87.0763 35.4859L86.8224 40.48C86.7381 42.1346 85.3285 43.4078 83.6739 43.3238L81.1768 43.1968C74.5563 42.8601 68.3717 40.11 63.7169 35.5904C62.3119 34.1903 61.0505 32.6271 59.9669 30.9166L51.5362 17.607L51.4825 17.6754L49.7579 14.9517C46.3112 9.51067 38.3013 9.73027 35.1583 15.3521L33.4132 18.4722L29.7013 11.8316C28.9001 10.3985 27.9839 9.05213 26.9688 7.80035ZM83.8184 0.0484009C85.4731 -0.0356199 86.8827 1.23753 86.9669 2.89215L87.2208 7.88629C87.3049 9.54094 86.0317 10.9505 84.377 11.0347L81.88 11.1617C76.6809 11.4261 71.9334 14.1976 69.1475 18.5953L68.9405 18.9205L62.6681 9.01813C67.4299 3.76567 74.1174 0.541724 81.3214 0.175354L83.8184 0.0484009Z" fill="black"/>
</svg>
